<svg xmlns="http://www.w3.org/2000/svg" height="24" viewBox="0 96 960 960" width="24"><path d="M274.272 960.616q-30.272 0-51.118-20.882-20.847-20.882-20.847-51.154 0-30.272 20.882-51.118 20.882-20.847 51.154-20.847 30.272 0 51.119 20.882 20.846 20.882 20.846 51.154 0 30.272-20.882 51.118-20.881 20.847-51.154 20.847Zm399.385 0q-30.272 0-51.119-20.882-20.846-20.882-20.846-51.154 0-30.272 20.882-51.118 20.881-20.847 51.154-20.847 30.272 0 51.118 20.882 20.847 20.882 20.847 51.154 0 30.272-20.882 51.118-20.882 20.847-51.154 20.847ZM199.692 248h574.77q25.587 0 38.486 21.269 12.898 21.269.129 43.808L678.769 555.385q-9.692 17.615-27.026 28.423t-38.051 10.808H316l-36.615 65.23q-6.154 9.231-.385 20t17.308 10.769h451.385v66.001H274.308q-43 0-62.731-36.5-19.731-36.501-.346-72.27l56.153-103.231L120.307 234H42v-66h119.692l38 80Z"/></svg>