<svg xmlns="http://www.w3.org/2000/svg" height="24" viewBox="0 96 960 960" width="24"><path d="M480 551.691q-67.749 0-114.874-47.124-47.125-47.125-47.125-114.874 0-67.75 47.125-114.874Q412.251 227.694 480 227.694t114.874 47.125q47.125 47.124 47.125 114.874 0 67.749-47.125 114.874Q547.749 551.691 480 551.691ZM150.001 929.306V809.384q0-36.384 18.149-65.776 18.149-29.393 48.466-45.146 63.308-32.077 129.562-48.115 66.253-16.038 133.73-16.038 67.476 0 133.822 16.038t129.654 48.115q30.317 15.753 48.466 45.146 18.149 29.392 18.149 65.776v119.922H150.001ZM236 843.307h488v-33.923q0-12.154-5.039-20.5-5.038-8.346-14.115-12.885-52.692-25.461-110.918-40.577Q535.702 720.307 480 720.307t-113.928 14.615q-58.226 14.616-110.918 41.077-9.077 3.539-14.115 12.385-5.039 8.846-5.039 21v33.923Zm244-377.614q32 0 54-22t22-54q0-32-22-54t-54-22q-32 0-54 22t-22 54q0 32 22 54t54 22Zm0-76Zm0 453.614Z"/></svg>